<?xml version="1.0" encoding="UTF-8"?>
<svg width="296px" height="311px" viewBox="0 0 296 311" version="1.1" xmlns="http://www.w3.org/2000/svg" xmlns:xlink="http://www.w3.org/1999/xlink">
    <title>Rectangle 3</title>
    <g id="Page-1" stroke="none" stroke-width="1" fill="none" fill-rule="evenodd">
        <path d="M110.033864,0.58337799 C110.085911,0.586818606 110.137944,0.590462819 110.189963,0.594310545 L276.79348,12.9177191 C287.748187,13.7280221 295.999152,23.221758 295.274583,34.1824695 L278.241819,291.840902 C277.513223,302.86254 267.987775,311.2067 256.966136,310.478104 C256.914089,310.474663 256.862056,310.471019 256.810037,310.467171 L143.190128,302.063166 C143.150473,302.077252 143.110757,302.091217 143.070981,302.105061 C143.056677,302.087371 143.034933,302.070658 143.006753,302.054082 C142.932127,302.010185 142.823853,302.011611 142.706364,302.002689 C142.530765,301.989354 142.319628,301.977424 142.049376,301.95349 C142.001685,301.949266 141.952551,301.945 141.901985,301.940691 L236.593635,308.944673 C236.645654,308.948521 236.697687,308.952165 236.749734,308.955606 C237.717702,309.019594 238.67413,309.013603 239.614073,308.941966 L108.902368,299.273821 C109.870683,299.49411 110.867519,299.644904 111.887808,299.720373 L111.887808,299.720373 L140.136613,301.810142 C139.429944,301.762999 138.608193,301.712304 137.679377,301.658159 C133.817605,301.433039 128.015769,300.932936 120.116714,300.35312 C119.173427,300.28388 118.201668,300.225613 117.201614,300.145244 C116.41307,300.081873 115.190912,299.991576 113.53514,299.874354 C112.72541,299.823096 112.113863,299.777891 111.7005,299.73874 C111.137831,299.685447 110.566623,299.644843 109.989166,299.606999 C109.777029,299.593097 109.640799,299.585349 109.426498,299.570231 C109.360186,299.565552 109.266593,299.564244 109.176301,299.557482 C109.141223,299.554856 109.106644,299.551406 109.074355,299.546617 C108.958953,299.529498 107.604162,299.427513 106.54966,299.351399 C104.051004,299.171044 100.492629,298.881577 96.9389947,298.638475 C95.7261088,298.555502 94.3926133,298.454881 93.0610192,298.357126 C91.6800969,298.25575 90.3011378,298.155986 89.0562029,297.998303 C88.5138193,297.929605 88.377943,297.880305 87.8510583,297.789009 C85.6444784,297.406666 83.2522941,296.372499 80.6745055,294.686508 C79.7746298,293.983185 79.1207504,293.444513 78.7128673,293.07049 C77.7499783,292.187535 76.8540333,291.198878 76.4518892,290.681593 C75.3966763,289.324256 74.5102173,287.821856 74.0949616,286.954905 C73.986476,286.728413 73.8809909,286.5283 73.7845158,286.324587 C73.6310392,286.000511 73.4946214,285.683565 73.3617406,285.359709 C72.5724952,283.436167 72.2252764,281.607942 72.1202249,281.047692 C71.9859172,280.331413 71.8347485,279.156157 71.8347485,278.962371 C71.8347485,278.768585 71.8217822,278.694495 71.8149274,278.512222 C71.8106182,278.397639 71.8001347,278.222131 71.7880222,278.001964 C71.7566417,277.431566 71.7566418,276.89554 71.7684188,276.357287 C71.7720387,276.191843 71.7769622,276.025639 71.7880224,275.866924 C74.9697138,230.209245 76.790724,199.481113 77.8575044,184.02435 C78.913326,168.72637 79.6078401,157.208205 80.1365286,149.495042 C81.157939,134.593443 81.8314878,123.691325 82.2975651,116.862429 C82.6926933,111.073069 82.9904276,106.196962 83.2553552,102.305431 C84.0866647,90.0942984 84.6725132,80.7314426 85.1112915,74.2711981 C85.9299908,62.2172812 86.4852317,53.4139533 86.8612771,47.8701221 C87.3142813,41.191731 87.6274404,36.1963278 87.8510858,32.8976397 C88.4300181,24.3586011 88.7064186,20.0797214 88.7064186,20.0797214 C88.7113348,19.9721862 88.7605484,18.9964734 88.9885931,17.7365034 C89.1191351,17.0152456 89.3192375,16.2104523 89.5514443,15.4011754 C90.2118304,13.0996268 91.497255,10.183917 93.8985695,7.38157197 C94.0996268,7.14693726 94.2289394,6.91437391 94.294296,6.68365909 C98.2401956,2.57795047 103.905761,0.17827372 110.033864,0.58337799 Z M62.845126,9.68907197 L44.1848899,291.967339 C43.7217462,298.973417 48.9055428,305.081274 55.8937039,305.763359 L55.8937039,305.763359 L76.107126,307.736072 L39.1899626,310.467171 C28.1743615,311.281979 18.5839207,303.012601 17.7691134,291.997 L17.7581809,291.840902 L17.7581809,291.840902 L0.725416622,34.1824695 C0.000847999443,23.221758 8.25181329,13.7280221 19.2065203,12.9177191 L62.845126,9.68907197 Z M130.250266,24.3196451 C119.228627,23.5910489 109.703179,31.9352086 108.974583,42.9568476 L108.974583,42.9568476 L98.888126,195.520072 L138.983699,158.915135 C141.27223,156.825758 144.109228,156.326667 145.320312,157.800384 L180.536126,200.654072 L180.583649,200.65797 C180.728831,200.895205 180.887641,201.126895 181.060154,201.35198 L181.231652,201.568035 L194.675558,217.92736 C194.769725,218.041948 194.86706,218.153894 194.967451,218.26307 C197.958047,221.515379 203.018922,221.727539 206.271231,218.736943 L206.271231,218.736943 L211.833661,213.622121 C214.958794,210.748465 215.294923,205.934088 212.599425,202.65405 L212.599425,202.65405 L199.155519,186.294725 C199.061352,186.180137 198.964017,186.068191 198.863626,185.959015 C198.685125,185.764893 198.499248,185.581601 198.306821,185.409175 L188.818294,173.863332 C187.859493,172.696606 188.770253,170.208163 190.852535,168.305238 L237.038775,126.097247 C239.121057,124.194322 241.581412,123.591515 242.534132,124.75084 L267.116126,152.794072 L273.593295,54.8196283 C274.310237,43.9742927 266.239609,34.5652116 255.457224,33.5833444 L255.112192,33.5548779 L130.406365,24.3305777 C130.354346,24.32673 130.302313,24.3230858 130.250266,24.3196451 Z M140.5,54 C150.164983,54 158,62.2827321 158,72.5 C158,82.7172679 150.164983,91 140.5,91 C130.835017,91 123,82.7172679 123,72.5 C123,62.2827321 130.835017,54 140.5,54 Z" id="Rectangle-3" fill="#64B466"></path>
    </g>
</svg>